0
SECTION
2
HEADER
9
$INSUNITS
70
4
9
$ACADVER
1
AC1014
9
$HANDSEED
5
FFFF
0
ENDSEC
0
SECTION
2
TABLES
0
TABLE
2
VPORT
5
8
100
AcDbSymbolTable
0
ENDTAB
0
TABLE
2
LTYPE
5
5
100
AcDbSymbolTable
0
LTYPE
5
14
100
AcDbSymbolTableRecord
100
AcDbLinetypeTableRecord
2
BYBLOCK
70
0
0
LTYPE
5
15
100
AcDbSymbolTableRecord
100
AcDbLinetypeTableRecord
2
BYLAYER
70
0
0
ENDTAB
0
TABLE
2
LAYER
5
2
100
AcDbSymbolTable
70
2
0
LAYER
5
50
100
AcDbSymbolTableRecord
100
AcDbLayerTableRecord
2
0
70
0
6
CONTINUOUS
0
ENDTAB
0
TABLE
2
STYLE
5
3
100
AcDbSymbolTable
70
1
0
STYLE
5
11
100
AcDbSymbolTableRecord
100
AcDbTextStyleTableRecord
2
STANDARD
70
0
0
ENDTAB
0
TABLE
2
VIEW
5
6
100
AcDbSymbolTable
70
0
0
ENDTAB
0
TABLE
2
UCS
5
7
100
AcDbSymbolTable
70
0
0
ENDTAB
0
TABLE
2
APPID
5
9
100
AcDbSymbolTable
70
2
0
APPID
5
12
100
AcDbSymbolTableRecord
100
AcDbRegAppTableRecord
2
ACAD
70
0
0
ENDTAB
0
TABLE
2
DIMSTYLE
5
A
100
AcDbSymbolTable
70
1
0
ENDTAB
0
TABLE
2
BLOCK_RECORD
5
1
100
AcDbSymbolTable
70
1
0
BLOCK_RECORD
5
1F
100
AcDbSymbolTableRecord
100
AcDbBlockTableRecord
2
*MODEL_SPACE
0
BLOCK_RECORD
5
1B
100
AcDbSymbolTableRecord
100
AcDbBlockTableRecord
2
*PAPER_SPACE
0
ENDTAB
0
ENDSEC
0
SECTION
2
BLOCKS
0
BLOCK
5
20
100
AcDbEntity
100
AcDbBlockBegin
2
*MODEL_SPACE
0
ENDBLK
5
21
100
AcDbEntity
100
AcDbBlockEnd
0
BLOCK
5
1C
100
AcDbEntity
100
AcDbBlockBegin
2
*PAPER_SPACE
0
ENDBLK
5
1D
100
AcDbEntity
100
AcDbBlockEnd
0
ENDSEC
0
SECTION
2
ENTITIES
0
ARC
5
100
100
AcDbEntity
8
0
100
AcDbCircle
10
20.000000000027253
20
30.999999999999993
30
0
40
1.5000000000000036
210
0
220
0
230
1
100
AcDbArc
50
90.000000000000142
51
180
0
ARC
5
101
100
AcDbEntity
8
0
100
AcDbCircle
10
15.50000000002724
20
30.999999999994575
30
0
40
3.0000000000000071
210
0
220
0
230
1
100
AcDbArc
50
270.00000000000011
51
360
0
LINE
5
102
100
AcDbEntity
8
0
100
AcDbLine
10
15.500000000027246
20
27.999999999994568
30
0
11
-15.500000000027249
21
27.999999999994571
31
0
0
ARC
5
103
100
AcDbEntity
8
0
100
AcDbCircle
10
-15.500000000027239
20
30.999999999994575
30
0
40
3.0000000000000027
210
0
220
0
230
1
100
AcDbArc
50
180
51
269.99999999999983
0
ARC
5
104
100
AcDbEntity
8
0
100
AcDbCircle
10
-20.000000000027235
20
30.999999999999996
30
0
40
1.4999999999999947
210
0
220
0
230
1
100
AcDbArc
50
0
51
89.999999999999858
0
LINE
5
105
100
AcDbEntity
8
0
100
AcDbLine
10
60.585786437626865
20
32.499999999999993
30
0
11
20.000000000027249
21
32.499999999999993
31
0
0
LINE
5
106
100
AcDbEntity
8
0
100
AcDbLine
10
-61.792893218813411
20
32.207106781186539
30
0
11
-65.207106781186525
21
28.792893218813429
31
0
0
LINE
5
107
100
AcDbEntity
8
0
100
AcDbLine
10
-65.499999999999986
20
28.085786437626883
30
0
11
-65.499999999999986
21
-20.085786437626901
31
0
0
LINE
5
108
100
AcDbEntity
8
0
100
AcDbLine
10
-65.207106781186525
20
-20.792893218813447
30
0
11
-53.792893218813433
21
-32.207106781186546
31
0
0
LINE
5
109
100
AcDbEntity
8
0
100
AcDbLine
10
-53.085786437626879
20
-32.500000000000007
30
0
11
-22.887482193696059
21
-32.500000000000007
31
0
0
ARC
5
110
100
AcDbEntity
8
0
100
AcDbCircle
10
-22.887482193696059
20
-31.000000000000007
30
0
40
1.5000000000000036
210
0
220
0
230
1
100
AcDbArc
50
270
51
347.16041159309498
0
ARC
5
111
100
AcDbEntity
8
0
100
AcDbCircle
10
-18.500000000000011
20
-32.000000000000071
30
0
40
2.9999999999999982
210
0
220
0
230
1
100
AcDbArc
50
90.000000000000142
51
167.16041159309503
0
LINE
5
112
100
AcDbEntity
8
0
100
AcDbLine
10
-18.500000000000018
20
-29.000000000000075
30
0
11
18.500000000000007
21
-29.000000000000075
31
0
0
ARC
5
113
100
AcDbEntity
8
0
100
AcDbCircle
10
18.500000000000004
20
-32.000000000000085
30
0
40
3.0000000000000053
210
0
220
-0
230
1
100
AcDbArc
50
12.839588406905179
51
89.999999999999929
0
ARC
5
114
100
AcDbEntity
8
0
100
AcDbCircle
10
22.887482193696052
20
-31.000000000000011
30
0
40
1.4999999999999982
210
0
220
0
230
1
100
AcDbArc
50
192.83958840690494
51
269.99999999999972
0
LINE
5
115
100
AcDbEntity
8
0
100
AcDbLine
10
22.887482193696044
20
-32.500000000000007
30
0
11
52.585786437626922
21
-32.500000000000007
31
0
0
LINE
5
116
100
AcDbEntity
8
0
100
AcDbLine
10
53.292893218813475
20
-32.20710678118656
30
0
11
64.707106781186567
21
-20.792893218813447
31
0
0
LINE
5
117
100
AcDbEntity
8
0
100
AcDbLine
10
65.000000000000014
20
-20.085786437626897
30
0
11
64.999999999999972
21
28.085786437626915
31
0
0
LINE
5
118
100
AcDbEntity
8
0
100
AcDbLine
10
64.707106781186511
20
28.792893218813465
30
0
11
61.292893218813418
21
32.207106781186553
31
0
0
CIRCLE
5
119
100
AcDbEntity
8
0
100
AcDbCircle
10
-12.229184719828705
20
-7.5208152801712824
30
0
40
1.5500000000000003
210
0
220
0
230
1
0
CIRCLE
5
120
100
AcDbEntity
8
0
100
AcDbCircle
10
-12.229184719828705
20
16.520815280171341
30
0
40
1.5500000000000003
210
0
220
0
230
1
0
CIRCLE
5
121
100
AcDbEntity
8
0
100
AcDbCircle
10
-36.270815280171327
20
16.520815280171341
30
0
40
1.5500000000000025
210
0
220
0
230
1
0
CIRCLE
5
122
100
AcDbEntity
8
0
100
AcDbCircle
10
-24.250000000000014
20
4.5000000000000284
30
0
40
12.5
210
0
220
0
230
1
0
CIRCLE
5
123
100
AcDbEntity
8
0
100
AcDbCircle
10
-36.270815280171327
20
-7.5208152801712789
30
0
40
1.5500000000000025
210
0
220
0
230
1
0
CIRCLE
5
124
100
AcDbEntity
8
0
100
AcDbCircle
10
7.9999999999999964
20
-24.5
30
0
40
1.5500000000000014
210
0
220
0
230
1
0
CIRCLE
5
125
100
AcDbEntity
8
0
100
AcDbCircle
10
-50.000000000000007
20
-24.500000000000011
30
0
40
1.5500000000000025
210
0
220
0
230
1
0
CIRCLE
5
126
100
AcDbEntity
8
0
100
AcDbCircle
10
7.9999999999999822
20
24.50000000000006
30
0
40
1.5500000000000003
210
0
220
0
230
1
0
CIRCLE
5
127
100
AcDbEntity
8
0
100
AcDbCircle
10
-50.000000000000014
20
24.50000000000005
30
0
40
1.5500000000000025
210
0
220
0
230
1
0
LWPOLYLINE
5
128
100
AcDbEntity
8
0
100
AcDbPolyline
90
128
70
1
43
0.0
10
-46.399999999999999
20
24.900000000000052
10
-46
20
24.50000000000005
10
-46.399999999999999
20
24.100000000000051
10
-46.399999999999999
20
22.360000000000046
10
-46
20
21.960000000000047
10
-44.260000000000005
20
21.960000000000047
10
-43.859999999999999
20
22.360000000000046
10
-43.459999999999994
20
21.960000000000047
10
-41.720000000000006
20
21.960000000000047
10
-41.319999999999993
20
22.360000000000046
10
-40.919999999999995
20
21.960000000000047
10
-39.18
20
21.960000000000047
10
-38.779999999999994
20
22.360000000000046
10
-38.380000000000003
20
21.960000000000047
10
-36.640000000000001
20
21.960000000000047
10
-36.239999999999995
20
22.360000000000046
10
-35.839999999999996
20
21.960000000000047
10
-34.099999999999994
20
21.960000000000051
10
-33.699999999999996
20
22.360000000000049
10
-33.299999999999997
20
21.960000000000051
10
-31.559999999999995
20
21.960000000000051
10
-31.159999999999997
20
22.360000000000049
10
-30.760000000000002
20
21.960000000000051
10
-29.020000000000003
20
21.960000000000051
10
-28.620000000000001
20
22.360000000000049
10
-28.219999999999999
20
21.960000000000051
10
-26.479999999999997
20
21.960000000000051
10
-26.079999999999998
20
22.360000000000049
10
-25.679999999999996
20
21.960000000000051
10
-23.939999999999998
20
21.960000000000051
10
-23.539999999999996
20
22.360000000000049
10
-23.139999999999997
20
21.960000000000051
10
-21.399999999999999
20
21.960000000000051
10
-20.999999999999996
20
22.360000000000049
10
-20.599999999999994
20
21.960000000000051
10
-18.859999999999996
20
21.960000000000051
10
-18.459999999999997
20
22.360000000000049
10
-18.059999999999995
20
21.960000000000051
10
-16.319999999999997
20
21.960000000000051
10
-15.919999999999996
20
22.360000000000049
10
-15.52
20
21.960000000000051
10
-13.779999999999998
20
21.960000000000051
10
-13.380000000000001
20
22.360000000000056
10
-12.98
20
21.960000000000054
10
-11.239999999999997
20
21.960000000000054
10
-10.84
20
22.360000000000056
10
-10.440000000000001
20
21.960000000000054
10
-8.699999999999994
20
21.960000000000054
10
-8.2999999999999972
20
22.360000000000056
10
-7.9000000000000004
20
21.960000000000054
10
-6.1599999999999948
20
21.960000000000054
10
-5.7599999999999962
20
22.360000000000056
10
-5.3599999999999977
20
21.960000000000054
10
-3.6199999999999943
20
21.960000000000054
10
-3.2199999999999962
20
22.360000000000056
10
-2.8199999999999981
20
21.960000000000054
10
-1.0799999999999921
20
21.960000000000054
10
-0.67999999999999616
20
22.360000000000056
10
-0.27999999999999581
20
21.960000000000054
10
1.460000000000008
20
21.960000000000054
10
1.8600000000000039
20
22.360000000000056
10
2.2600000000000042
20
21.960000000000058
10
4.000000000000008
20
21.960000000000058
10
4.4000000000000039
20
22.36000000000006
10
4.4000000000000039
20
24.100000000000065
10
4.000000000000008
20
24.50000000000006
10
4.4000000000000039
20
24.900000000000059
10
4.4000000000000039
20
26.640000000000065
10
4.000000000000008
20
27.040000000000063
10
2.2600000000000042
20
27.040000000000063
10
1.8600000000000039
20
26.640000000000065
10
1.460000000000008
20
27.040000000000063
10
-0.27999999999999581
20
27.040000000000063
10
-0.67999999999999616
20
26.640000000000065
10
-1.0799999999999921
20
27.040000000000063
10
-2.8199999999999981
20
27.040000000000063
10
-3.2199999999999962
20
26.640000000000065
10
-3.6199999999999943
20
27.040000000000063
10
-5.3599999999999977
20
27.040000000000063
10
-5.7599999999999962
20
26.640000000000065
10
-6.1599999999999948
20
27.040000000000063
10
-7.9000000000000004
20
27.040000000000063
10
-8.2999999999999972
20
26.640000000000057
10
-8.699999999999994
20
27.04000000000006
10
-10.440000000000001
20
27.04000000000006
10
-10.839999999999998
20
26.640000000000057
10
-11.239999999999997
20
27.04000000000006
10
-12.98
20
27.04000000000006
10
-13.379999999999999
20
26.640000000000057
10
-13.779999999999998
20
27.04000000000006
10
-15.52
20
27.04000000000006
10
-15.919999999999996
20
26.640000000000057
10
-16.319999999999997
20
27.04000000000006
10
-18.059999999999995
20
27.04000000000006
10
-18.459999999999997
20
26.640000000000057
10
-18.859999999999996
20
27.04000000000006
10
-20.599999999999994
20
27.04000000000006
10
-20.999999999999996
20
26.640000000000057
10
-21.399999999999999
20
27.04000000000006
10
-23.139999999999997
20
27.04000000000006
10
-23.539999999999996
20
26.640000000000057
10
-23.939999999999998
20
27.04000000000006
10
-25.679999999999996
20
27.04000000000006
10
-26.079999999999998
20
26.640000000000057
10
-26.479999999999997
20
27.04000000000006
10
-28.219999999999995
20
27.04000000000006
10
-28.619999999999997
20
26.640000000000054
10
-29.020000000000003
20
27.040000000000056
10
-30.760000000000002
20
27.040000000000056
10
-31.159999999999997
20
26.640000000000054
10
-31.559999999999995
20
27.040000000000056
10
-33.299999999999997
20
27.040000000000056
10
-33.700000000000003
20
26.640000000000054
10
-34.099999999999994
20
27.040000000000056
10
-35.839999999999996
20
27.040000000000056
10
-36.239999999999995
20
26.640000000000054
10
-36.640000000000001
20
27.040000000000056
10
-38.380000000000003
20
27.040000000000056
10
-38.780000000000001
20
26.640000000000054
10
-39.18
20
27.040000000000056
10
-40.919999999999995
20
27.040000000000056
10
-41.319999999999993
20
26.640000000000054
10
-41.719999999999999
20
27.040000000000056
10
-43.460000000000001
20
27.040000000000056
10
-43.859999999999999
20
26.64000000000005
10
-44.260000000000005
20
27.040000000000049
10
-46
20
27.040000000000049
10
-46.399999999999999
20
26.64000000000005
0
LWPOLYLINE
5
129
100
AcDbEntity
8
0
100
AcDbPolyline
90
4
70
1
43
0.0
10
-44.810000000000002
20
26.090000000000053
10
-44.810000000000002
20
25.450000000000053
10
-45.450000000000003
20
25.450000000000053
10
-45.450000000000003
20
26.090000000000053
0
LWPOLYLINE
5
130
100
AcDbEntity
8
0
100
AcDbPolyline
90
4
70
1
43
0.0
10
-42.270000000000003
20
26.090000000000053
10
-42.270000000000003
20
25.450000000000053
10
-42.910000000000004
20
25.450000000000053
10
-42.910000000000004
20
26.090000000000053
0
LWPOLYLINE
5
131
100
AcDbEntity
8
0
100
AcDbPolyline
90
4
70
1
43
0.0
10
-39.729999999999997
20
26.090000000000053
10
-39.729999999999997
20
25.450000000000053
10
-40.369999999999997
20
25.450000000000053
10
-40.369999999999997
20
26.090000000000053
0
LWPOLYLINE
5
132
100
AcDbEntity
8
0
100
AcDbPolyline
90
4
70
1
43
0.0
10
-37.189999999999998
20
26.090000000000053
10
-37.189999999999998
20
25.450000000000053
10
-37.829999999999998
20
25.450000000000053
10
-37.829999999999998
20
26.090000000000053
0
LWPOLYLINE
5
133
100
AcDbEntity
8
0
100
AcDbPolyline
90
4
70
1
43
0.0
10
-34.649999999999999
20
26.090000000000053
10
-34.649999999999999
20
25.450000000000053
10
-35.289999999999999
20
25.450000000000053
10
-35.289999999999999
20
26.090000000000053
0
LWPOLYLINE
5
134
100
AcDbEntity
8
0
100
AcDbPolyline
90
4
70
1
43
0.0
10
-32.109999999999992
20
26.090000000000053
10
-32.109999999999992
20
25.450000000000053
10
-32.749999999999993
20
25.450000000000053
10
-32.749999999999993
20
26.090000000000053
0
LWPOLYLINE
5
135
100
AcDbEntity
8
0
100
AcDbPolyline
90
4
70
1
43
0.0
10
-29.57
20
26.090000000000053
10
-29.57
20
25.450000000000053
10
-30.210000000000001
20
25.450000000000053
10
-30.210000000000001
20
26.090000000000053
0
LWPOLYLINE
5
136
100
AcDbEntity
8
0
100
AcDbPolyline
90
4
70
1
43
0.0
10
-27.029999999999998
20
26.090000000000057
10
-27.029999999999998
20
25.450000000000056
10
-27.669999999999998
20
25.450000000000056
10
-27.669999999999998
20
26.090000000000057
0
LWPOLYLINE
5
137
100
AcDbEntity
8
0
100
AcDbPolyline
90
4
70
1
43
0.0
10
-24.489999999999998
20
26.090000000000057
10
-24.489999999999998
20
25.450000000000056
10
-25.129999999999999
20
25.450000000000056
10
-25.129999999999999
20
26.090000000000057
0
LWPOLYLINE
5
138
100
AcDbEntity
8
0
100
AcDbPolyline
90
4
70
1
43
0.0
10
-21.949999999999996
20
26.090000000000057
10
-21.949999999999996
20
25.450000000000056
10
-22.589999999999996
20
25.450000000000056
10
-22.59
20
26.090000000000057
0
LWPOLYLINE
5
139
100
AcDbEntity
8
0
100
AcDbPolyline
90
4
70
1
43
0.0
10
-19.409999999999997
20
26.090000000000057
10
-19.409999999999997
20
25.450000000000056
10
-20.049999999999997
20
25.450000000000056
10
-20.049999999999997
20
26.090000000000057
0
LWPOLYLINE
5
140
100
AcDbEntity
8
0
100
AcDbPolyline
90
4
70
1
43
0.0
10
-16.869999999999994
20
26.090000000000057
10
-16.869999999999994
20
25.450000000000056
10
-17.509999999999994
20
25.450000000000056
10
-17.509999999999998
20
26.090000000000057
0
LWPOLYLINE
5
141
100
AcDbEntity
8
0
100
AcDbPolyline
90
4
70
1
43
0.0
10
-14.329999999999998
20
26.090000000000057
10
-14.329999999999998
20
25.450000000000056
10
-14.969999999999999
20
25.450000000000056
10
-14.969999999999999
20
26.090000000000057
0
LWPOLYLINE
5
142
100
AcDbEntity
8
0
100
AcDbPolyline
90
4
70
1
43
0.0
10
-11.789999999999999
20
26.09000000000006
10
-11.789999999999999
20
25.45000000000006
10
-12.43
20
25.450000000000056
10
-12.43
20
26.090000000000057
0
LWPOLYLINE
5
143
100
AcDbEntity
8
0
100
AcDbPolyline
90
4
70
1
43
0.0
10
-9.2499999999999964
20
26.09000000000006
10
-9.2499999999999964
20
25.45000000000006
10
-9.8899999999999988
20
25.45000000000006
10
-9.8899999999999988
20
26.09000000000006
0
LWPOLYLINE
5
144
100
AcDbEntity
8
0
100
AcDbPolyline
90
4
70
1
43
0.0
10
-6.7099999999999955
20
26.09000000000006
10
-6.7099999999999955
20
25.45000000000006
10
-7.3499999999999961
20
25.45000000000006
10
-7.3499999999999961
20
26.09000000000006
0
LWPOLYLINE
5
145
100
AcDbEntity
8
0
100
AcDbPolyline
90
4
70
1
43
0.0
10
-4.1699999999999964
20
26.09000000000006
10
-4.1699999999999964
20
25.45000000000006
10
-4.8099999999999969
20
25.45000000000006
10
-4.8099999999999969
20
26.09000000000006
0
LWPOLYLINE
5
146
100
AcDbEntity
8
0
100
AcDbPolyline
90
4
70
1
43
0.0
10
-1.6299999999999937
20
26.09000000000006
10
-1.6299999999999937
20
25.45000000000006
10
-2.2699999999999965
20
25.45000000000006
10
-2.2699999999999965
20
26.09000000000006
0
LWPOLYLINE
5
147
100
AcDbEntity
8
0
100
AcDbPolyline
90
4
70
1
43
0.0
10
0.91000000000000636
20
26.09000000000006
10
0.91000000000000636
20
25.45000000000006
10
0.27000000000000579
20
25.45000000000006
10
0.27000000000000574
20
26.09000000000006
0
LWPOLYLINE
5
148
100
AcDbEntity
8
0
100
AcDbPolyline
90
4
70
1
43
0.0
10
3.4500000000000064
20
26.09000000000006
10
3.4500000000000064
20
25.45000000000006
10
2.8100000000000058
20
25.45000000000006
10
2.8100000000000058
20
26.09000000000006
0
LWPOLYLINE
5
149
100
AcDbEntity
8
0
100
AcDbPolyline
90
4
70
1
43
0.0
10
-44.810000000000002
20
23.550000000000047
10
-44.810000000000002
20
22.910000000000046
10
-45.450000000000003
20
22.910000000000046
10
-45.450000000000003
20
23.550000000000047
0
LWPOLYLINE
5
150
100
AcDbEntity
8
0
100
AcDbPolyline
90
4
70
1
43
0.0
10
-42.270000000000003
20
23.550000000000047
10
-42.270000000000003
20
22.910000000000046
10
-42.910000000000004
20
22.910000000000046
10
-42.910000000000004
20
23.550000000000047
0
LWPOLYLINE
5
151
100
AcDbEntity
8
0
100
AcDbPolyline
90
4
70
1
43
0.0
10
-39.729999999999997
20
23.550000000000047
10
-39.729999999999997
20
22.910000000000046
10
-40.369999999999997
20
22.910000000000046
10
-40.369999999999997
20
23.550000000000047
0
LWPOLYLINE
5
152
100
AcDbEntity
8
0
100
AcDbPolyline
90
4
70
1
43
0.0
10
-37.189999999999998
20
23.550000000000047
10
-37.189999999999998
20
22.910000000000046
10
-37.829999999999998
20
22.910000000000046
10
-37.829999999999998
20
23.550000000000047
0
LWPOLYLINE
5
153
100
AcDbEntity
8
0
100
AcDbPolyline
90
4
70
1
43
0.0
10
-34.649999999999999
20
23.550000000000047
10
-34.649999999999999
20
22.910000000000046
10
-35.289999999999999
20
22.910000000000046
10
-35.289999999999999
20
23.550000000000047
0
LWPOLYLINE
5
154
100
AcDbEntity
8
0
100
AcDbPolyline
90
4
70
1
43
0.0
10
-32.109999999999992
20
23.550000000000054
10
-32.109999999999992
20
22.910000000000053
10
-32.749999999999993
20
22.910000000000046
10
-32.749999999999993
20
23.550000000000047
0
LWPOLYLINE
5
155
100
AcDbEntity
8
0
100
AcDbPolyline
90
4
70
1
43
0.0
10
-29.57
20
23.550000000000054
10
-29.57
20
22.910000000000053
10
-30.210000000000001
20
22.910000000000053
10
-30.210000000000001
20
23.550000000000054
0
LWPOLYLINE
5
156
100
AcDbEntity
8
0
100
AcDbPolyline
90
4
70
1
43
0.0
10
-27.029999999999998
20
23.550000000000054
10
-27.029999999999998
20
22.910000000000053
10
-27.669999999999998
20
22.910000000000053
10
-27.669999999999998
20
23.550000000000054
0
LWPOLYLINE
5
157
100
AcDbEntity
8
0
100
AcDbPolyline
90
4
70
1
43
0.0
10
-24.489999999999998
20
23.550000000000054
10
-24.489999999999998
20
22.910000000000053
10
-25.129999999999999
20
22.910000000000053
10
-25.129999999999999
20
23.550000000000054
0
LWPOLYLINE
5
158
100
AcDbEntity
8
0
100
AcDbPolyline
90
4
70
1
43
0.0
10
-21.949999999999996
20
23.550000000000054
10
-21.949999999999996
20
22.910000000000053
10
-22.589999999999996
20
22.910000000000053
10
-22.59
20
23.550000000000054
0
LWPOLYLINE
5
159
100
AcDbEntity
8
0
100
AcDbPolyline
90
4
70
1
43
0.0
10
-19.409999999999997
20
23.550000000000054
10
-19.409999999999997
20
22.910000000000053
10
-20.049999999999997
20
22.910000000000053
10
-20.049999999999997
20
23.550000000000054
0
LWPOLYLINE
5
160
100
AcDbEntity
8
0
100
AcDbPolyline
90
4
70
1
43
0.0
10
-16.869999999999994
20
23.550000000000054
10
-16.869999999999994
20
22.910000000000053
10
-17.509999999999994
20
22.910000000000053
10
-17.509999999999998
20
23.550000000000054
0
LWPOLYLINE
5
161
100
AcDbEntity
8
0
100
AcDbPolyline
90
4
70
1
43
0.0
10
-14.329999999999998
20
23.550000000000058
10
-14.329999999999998
20
22.910000000000057
10
-14.969999999999999
20
22.910000000000057
10
-14.969999999999999
20
23.550000000000058
0
LWPOLYLINE
5
162
100
AcDbEntity
8
0
100
AcDbPolyline
90
4
70
1
43
0.0
10
-11.789999999999999
20
23.550000000000058
10
-11.789999999999999
20
22.910000000000057
10
-12.43
20
22.910000000000057
10
-12.43
20
23.550000000000058
0
LWPOLYLINE
5
163
100
AcDbEntity
8
0
100
AcDbPolyline
90
4
70
1
43
0.0
10
-9.2499999999999964
20
23.550000000000058
10
-9.2499999999999964
20
22.910000000000057
10
-9.8899999999999988
20
22.910000000000057
10
-9.8899999999999988
20
23.550000000000058
0
LWPOLYLINE
5
164
100
AcDbEntity
8
0
100
AcDbPolyline
90
4
70
1
43
0.0
10
-6.7099999999999955
20
23.550000000000058
10
-6.7099999999999955
20
22.910000000000057
10
-7.3499999999999961
20
22.910000000000057
10
-7.3499999999999961
20
23.550000000000058
0
LWPOLYLINE
5
165
100
AcDbEntity
8
0
100
AcDbPolyline
90
4
70
1
43
0.0
10
-4.1699999999999964
20
23.550000000000058
10
-4.1699999999999964
20
22.910000000000057
10
-4.8099999999999969
20
22.910000000000057
10
-4.8099999999999969
20
23.550000000000058
0
LWPOLYLINE
5
166
100
AcDbEntity
8
0
100
AcDbPolyline
90
4
70
1
43
0.0
10
-1.6299999999999937
20
23.550000000000058
10
-1.6299999999999937
20
22.910000000000057
10
-2.2699999999999965
20
22.910000000000057
10
-2.2699999999999965
20
23.550000000000058
0
LWPOLYLINE
5
167
100
AcDbEntity
8
0
100
AcDbPolyline
90
4
70
1
43
0.0
10
0.91000000000000636
20
23.550000000000058
10
0.91000000000000636
20
22.910000000000057
10
0.27000000000000579
20
22.910000000000057
10
0.27000000000000574
20
23.550000000000058
0
LWPOLYLINE
5
168
100
AcDbEntity
8
0
100
AcDbPolyline
90
4
70
1
43
0.0
10
3.4500000000000064
20
23.550000000000061
10
3.4500000000000064
20
22.910000000000061
10
2.8100000000000058
20
22.910000000000057
10
2.8100000000000058
20
23.550000000000058
0
LWPOLYLINE
5
169
100
AcDbEntity
8
0
100
AcDbPolyline
90
4
70
1
43
0.0
10
-5
20
9.0000000000000018
10
5
20
9.0000000000000018
10
5
20
-9.0000000000000018
10
-5
20
-9.0000000000000018
0
LINE
5
170
100
AcDbEntity
8
0
100
AcDbLine
10
-5
20
9.0000000000000018
30
0
11
5
21
-9.0000000000000018
31
0
0
LINE
5
171
100
AcDbEntity
8
0
100
AcDbLine
10
5
20
9.0000000000000018
30
0
11
-5
21
-9.0000000000000018
31
0
0
ARC
5
172
100
AcDbEntity
8
0
100
AcDbCircle
10
-64.500000000000057
20
-20.085786437626936
30
0
40
0.99999999999991651
210
0
220
0
230
1
100
AcDbArc
50
180
51
225.00000000000173
0
ARC
5
173
100
AcDbEntity
8
0
100
AcDbCircle
10
-53.085786437626879
20
-31.500000000000007
30
0
40
0.99999999999999178
210
0
220
0
230
1
100
AcDbArc
50
224.99999999999943
51
270
0
ARC
5
174
100
AcDbEntity
8
0
100
AcDbCircle
10
52.585786437626908
20
-31.5
30
0
40
1.0000000000000098
210
0
220
0
230
1
100
AcDbArc
50
270.0000000000008
51
315.00000000000028
0
ARC
5
175
100
AcDbEntity
8
0
100
AcDbCircle
10
64.000000000000099
20
-20.085786437626933
30
0
40
0.99999999999991962
210
0
220
0
230
1
100
AcDbArc
50
-45.000000000001883
51
0
0
ARC
5
176
100
AcDbEntity
8
0
100
AcDbCircle
10
64.000000000000057
20
28.085786437626957
30
0
40
0.99999999999990763
210
0
220
0
230
1
100
AcDbArc
50
0
51
45.000000000002153
0
ARC
5
177
100
AcDbEntity
8
0
100
AcDbCircle
10
60.585786437626865
20
31.499999999999986
30
0
40
1.00000000000002
210
0
220
-0
230
1
100
AcDbArc
50
45.000000000000568
51
90
0
LINE
5
178
100
AcDbEntity
8
0
100
AcDbLine
10
-20.000000000027232
20
32.499999999999993
30
0
11
-61.085786437626851
21
32.499999999999993
31
0
0
ARC
5
179
100
AcDbEntity
8
0
100
AcDbCircle
10
-61.085786437626872
20
31.500000000000018
30
0
40
0.99999999999997424
210
0
220
-0
230
1
100
AcDbArc
50
89.999999999998778
51
135.00000000000074
0
ARC
5
180
100
AcDbEntity
8
0
100
AcDbCircle
10
-64.500000000000057
20
28.085786437626918
30
0
40
0.9999999999999164
210
0
220
0
230
1
100
AcDbArc
50
134.99999999999827
51
180
0
ENDSEC
0
SECTION
2
OBJECTS
0
DICTIONARY
5
C
100
AcDbDictionary
3
ACAD_GROUP
350
D
3
ACAD_MLINESTYLE
350
17
0
DICTIONARY
5
D
100
AcDbDictionary
0
DICTIONARY
5
1A
330
C
100
AcDbDictionary
0
DICTIONARY
5
17
100
AcDbDictionary
0
ENDSEC
0
EOF
