0
SECTION
2
HEADER
9
$INSUNITS
70
4
9
$ACADVER
1
AC1014
9
$HANDSEED
5
FFFF
0
ENDSEC
0
SECTION
2
TABLES
0
TABLE
2
VPORT
5
8
100
AcDbSymbolTable
0
ENDTAB
0
TABLE
2
LTYPE
5
5
100
AcDbSymbolTable
0
LTYPE
5
14
100
AcDbSymbolTableRecord
100
AcDbLinetypeTableRecord
2
BYBLOCK
70
0
0
LTYPE
5
15
100
AcDbSymbolTableRecord
100
AcDbLinetypeTableRecord
2
BYLAYER
70
0
0
ENDTAB
0
TABLE
2
LAYER
5
2
100
AcDbSymbolTable
70
2
0
LAYER
5
50
100
AcDbSymbolTableRecord
100
AcDbLayerTableRecord
2
0
70
0
6
CONTINUOUS
0
ENDTAB
0
TABLE
2
STYLE
5
3
100
AcDbSymbolTable
70
1
0
STYLE
5
11
100
AcDbSymbolTableRecord
100
AcDbTextStyleTableRecord
2
STANDARD
70
0
0
ENDTAB
0
TABLE
2
VIEW
5
6
100
AcDbSymbolTable
70
0
0
ENDTAB
0
TABLE
2
UCS
5
7
100
AcDbSymbolTable
70
0
0
ENDTAB
0
TABLE
2
APPID
5
9
100
AcDbSymbolTable
70
2
0
APPID
5
12
100
AcDbSymbolTableRecord
100
AcDbRegAppTableRecord
2
ACAD
70
0
0
ENDTAB
0
TABLE
2
DIMSTYLE
5
A
100
AcDbSymbolTable
70
1
0
ENDTAB
0
TABLE
2
BLOCK_RECORD
5
1
100
AcDbSymbolTable
70
1
0
BLOCK_RECORD
5
1F
100
AcDbSymbolTableRecord
100
AcDbBlockTableRecord
2
*MODEL_SPACE
0
BLOCK_RECORD
5
1B
100
AcDbSymbolTableRecord
100
AcDbBlockTableRecord
2
*PAPER_SPACE
0
ENDTAB
0
ENDSEC
0
SECTION
2
BLOCKS
0
BLOCK
5
20
100
AcDbEntity
100
AcDbBlockBegin
2
*MODEL_SPACE
0
ENDBLK
5
21
100
AcDbEntity
100
AcDbBlockEnd
0
BLOCK
5
1C
100
AcDbEntity
100
AcDbBlockBegin
2
*PAPER_SPACE
0
ENDBLK
5
1D
100
AcDbEntity
100
AcDbBlockEnd
0
ENDSEC
0
SECTION
2
ENTITIES
0
CIRCLE
5
100
100
AcDbEntity
8
0
100
AcDbCircle
10
60.542893218827068
20
27
30
0
40
1.0500000000000043
210
0
220
0
230
1
0
CIRCLE
5
101
100
AcDbEntity
8
0
100
AcDbCircle
10
34.042893218827075
20
26.999999999999993
30
0
40
1.0499999999999998
210
0
220
0
230
1
0
LWPOLYLINE
5
102
100
AcDbEntity
8
0
100
AcDbPolyline
90
28
70
1
43
0.0
10
-65.499999999999986
20
-20.085786437626901
42
0.19891236737967544
10
-65.207106781186525
20
-20.792893218813447
10
-53.792893218813433
20
-32.207106781186546
42
0.19891236737965967
10
-53.085786437626879
20
-32.500000000000007
10
-22.887482193696059
20
-32.500000000000007
42
0.35000111041852472
10
-21.424988129130703
20
-31.333333333333361
42
-0.35000111041852394
10
-18.500000000000018
20
-29.000000000000075
10
18.500000000000007
20
-29.000000000000075
42
-0.35000111041852389
10
21.424988129130703
20
-31.333333333333364
42
0.35000111041852305
10
22.887482193696044
20
-32.500000000000007
10
52.585786437626922
20
-32.500000000000007
42
0.1989123673796549
10
53.292893218813468
20
-32.20710678118656
10
64.707106781186567
20
-20.792893218813447
42
0.19891236737967624
10
65.000000000000028
20
-20.085786437626897
10
64.999999999999972
20
28.085786437626915
42
0.19891236737967855
10
64.707106781186511
20
28.792893218813465
10
61.292893218813418
20
32.207106781186553
42
0.19891236737965559
10
60.585786437626865
20
32.499999999999993
10
20.000000000027249
20
32.499999999999993
42
0.41421356237415291
10
18.500000000027249
20
30.999999999994571
42
-0.4142135623730942
10
15.500000000027246
20
27.999999999994568
10
-15.500000000027249
20
27.999999999994571
42
-0.41421356237309398
10
-18.500000000027242
20
30.999999999994575
42
0.41421356237415291
10
-20.000000000027232
20
32.499999999999993
10
-61.085786437626851
20
32.499999999999993
42
0.19891236737966672
10
-61.792893218813411
20
32.207106781186532
10
-65.207106781186525
20
28.792893218813429
42
0.19891236737967544
10
-65.499999999999986
20
28.085786437626883
0
CIRCLE
5
103
100
AcDbEntity
8
0
100
AcDbCircle
10
-50.000000000000014
20
24.50000000000005
30
0
40
1.5500000000000025
210
0
220
0
230
1
0
CIRCLE
5
104
100
AcDbEntity
8
0
100
AcDbCircle
10
7.9999999999999822
20
24.50000000000006
30
0
40
1.5500000000000003
210
0
220
0
230
1
0
CIRCLE
5
105
100
AcDbEntity
8
0
100
AcDbCircle
10
-50.000000000000007
20
-24.500000000000011
30
0
40
1.5500000000000025
210
0
220
0
230
1
0
CIRCLE
5
106
100
AcDbEntity
8
0
100
AcDbCircle
10
7.9999999999999964
20
-24.5
30
0
40
1.5500000000000014
210
0
220
0
230
1
0
CIRCLE
5
107
100
AcDbEntity
8
0
100
AcDbCircle
10
-36.270815280171327
20
-7.5208152801712789
30
0
40
1.5500000000000025
210
0
220
0
230
1
0
CIRCLE
5
108
100
AcDbEntity
8
0
100
AcDbCircle
10
-24.250000000000014
20
4.5000000000000284
30
0
40
12.5
210
0
220
0
230
1
0
CIRCLE
5
109
100
AcDbEntity
8
0
100
AcDbCircle
10
-36.270815280171327
20
16.520815280171341
30
0
40
1.5500000000000025
210
0
220
0
230
1
0
CIRCLE
5
110
100
AcDbEntity
8
0
100
AcDbCircle
10
-12.229184719828705
20
16.520815280171341
30
0
40
1.5500000000000003
210
0
220
0
230
1
0
CIRCLE
5
111
100
AcDbEntity
8
0
100
AcDbCircle
10
-12.229184719828705
20
-7.5208152801712824
30
0
40
1.5500000000000003
210
0
220
0
230
1
0
LINE
5
112
100
AcDbEntity
8
0
100
AcDbLine
10
60.542893218827068
20
27
30
0
11
34.042893218827075
21
27
31
0
0
LWPOLYLINE
5
113
100
AcDbEntity
8
0
100
AcDbPolyline
90
4
70
1
43
0.0
10
35.792893218827075
20
32.500000000000007
10
58.792893218827082
20
32.500000000000007
10
58.792893218827082
20
21.5
10
35.792893218827075
20
21.5
0
LINE
5
114
100
AcDbEntity
8
0
100
AcDbLine
10
35.792893218827075
20
32.500000000000007
30
0
11
58.792893218827082
21
21.5
31
0
0
LINE
5
115
100
AcDbEntity
8
0
100
AcDbLine
10
58.792893218827082
20
32.500000000000007
30
0
11
35.792893218827075
21
21.5
31
0
0
ENDSEC
0
SECTION
2
OBJECTS
0
DICTIONARY
5
C
100
AcDbDictionary
3
ACAD_GROUP
350
D
3
ACAD_MLINESTYLE
350
17
0
DICTIONARY
5
D
100
AcDbDictionary
0
DICTIONARY
5
1A
330
C
100
AcDbDictionary
0
DICTIONARY
5
17
100
AcDbDictionary
0
ENDSEC
0
EOF
